<?xml version="1.0" encoding="utf-8"?>
<!-- Generator: Adobe Illustrator 16.0.0, SVG Export Plug-In . SVG Version: 6.00 Build 0)  -->
<!DOCTYPE svg PUBLIC "-//W3C//DTD SVG 1.1//EN" "http://www.w3.org/Graphics/SVG/1.1/DTD/svg11.dtd">
<svg version="1.1" id="Layer_1" xmlns="http://www.w3.org/2000/svg" xmlns:xlink="http://www.w3.org/1999/xlink" x="0px" y="0px"
	 width="376.119px" height="363.433px" viewBox="0 0 376.119 363.433" enable-background="new 0 0 376.119 363.433"
	 xml:space="preserve">
<g>
	<g>
		<polygon fill="none" stroke="#699F63" stroke-width="7" stroke-miterlimit="10" points="32.196,10.303 344,10.303 
			316.941,316.979 188.101,353.055 60.543,319.555 		"/>
	</g>
</g>
<g>
	<g>
		<path fill="#699F63" d="M188.18,291.944c-0.694,0-1.384-0.181-1.991-0.532l-6.336-3.749c-0.946-0.53-0.484-0.717-0.172-0.826
			c1.263-0.438,1.518-0.539,2.865-1.304c0.14-0.079,0.327-0.048,0.471,0.036l4.868,2.891c0.176,0.098,0.426,0.098,0.588,0
			l18.979-10.954c0.177-0.101,0.289-0.305,0.289-0.514v-21.903c0-0.214-0.112-0.414-0.294-0.522l-18.971-10.945
			c-0.175-0.103-0.408-0.103-0.585,0l-18.966,10.948c-0.185,0.105-0.301,0.313-0.301,0.52v21.903c0,0.209,0.117,0.407,0.299,0.507
			l5.199,3.004c2.821,1.41,4.548-0.251,4.548-1.92v-21.624c0-0.307,0.246-0.547,0.551-0.547h2.406c0.301,0,0.55,0.24,0.55,0.547
			v21.624c0,3.766-2.05,5.925-5.62,5.925c-1.097,0-1.96,0-4.372-1.188l-4.977-2.865c-1.229-0.71-1.991-2.039-1.991-3.462v-21.903
			c0-1.423,0.761-2.752,1.991-3.459l18.979-10.967c1.201-0.679,2.797-0.679,3.989,0l18.978,10.967
			c1.229,0.711,1.993,2.036,1.993,3.459v21.903c0,1.423-0.764,2.746-1.993,3.462l-18.978,10.958
			C189.571,291.764,188.883,291.944,188.18,291.944"/>
		<path fill="#699F63" d="M194.042,276.854c-8.305,0-10.045-3.812-10.045-7.01c0-0.304,0.245-0.547,0.548-0.547h2.454
			c0.274,0,0.502,0.197,0.545,0.465c0.371,2.498,1.475,3.759,6.498,3.759c3.998,0,5.7-0.904,5.7-3.025
			c0-1.223-0.482-2.131-6.696-2.739c-5.192-0.514-8.404-1.661-8.404-5.815c0-3.829,3.227-6.113,8.64-6.113
			c6.08,0,9.088,2.11,9.469,6.638c0.015,0.156-0.04,0.307-0.145,0.423c-0.104,0.108-0.249,0.175-0.401,0.175h-2.464
			c-0.255,0-0.48-0.182-0.532-0.429c-0.591-2.629-2.028-3.469-5.927-3.469c-4.366,0-4.873,1.521-4.873,2.661
			c0,1.38,0.599,1.781,6.493,2.562c5.832,0.771,8.603,1.862,8.603,5.962C203.504,274.485,200.056,276.854,194.042,276.854"/>
		<path fill="#699F63" d="M221.408,253.885c0,2.013-1.646,3.657-3.656,3.657c-1.994,0-3.658-1.625-3.658-3.657
			c0-2.071,1.703-3.659,3.658-3.659C219.726,250.226,221.408,251.813,221.408,253.885 M214.685,253.874
			c0,1.704,1.374,3.078,3.058,3.078c1.703,0,3.077-1.403,3.077-3.078c0-1.703-1.394-3.058-3.077-3.058
			C216.077,250.816,214.685,252.151,214.685,253.874 M216.377,251.832h1.413c0.484,0,1.433,0,1.433,1.085
			c0,0.755-0.483,0.909-0.774,1.006c0.562,0.039,0.6,0.407,0.677,0.929c0.04,0.329,0.098,0.891,0.213,1.084h-0.87
			c-0.02-0.193-0.156-1.238-0.156-1.296c-0.057-0.233-0.135-0.349-0.425-0.349h-0.716v1.645h-0.794V251.832z M217.152,253.632h0.638
			c0.521,0,0.62-0.366,0.62-0.579c0-0.563-0.389-0.563-0.601-0.563h-0.657V253.632z"/>
		<path fill-rule="evenodd" clip-rule="evenodd" fill="#699F63" d="M129.408,206.252c0-0.875-0.46-1.679-1.215-2.112l-20.122-11.579
			c-0.34-0.201-0.722-0.305-1.107-0.32h-0.208c-0.385,0.016-0.766,0.119-1.111,0.32L85.522,204.14
			c-0.75,0.434-1.217,1.237-1.217,2.112l0.044,31.182c0,0.434,0.225,0.837,0.606,1.05c0.374,0.224,0.835,0.224,1.207,0l11.958-6.848
			c0.757-0.449,1.217-1.242,1.217-2.109v-14.567c0-0.868,0.46-1.673,1.213-2.104l5.092-2.933c0.38-0.219,0.794-0.326,1.218-0.326
			c0.415,0,0.84,0.107,1.208,0.326l5.09,2.933c0.753,0.432,1.215,1.236,1.215,2.104v14.567c0,0.867,0.467,1.665,1.218,2.109
			l11.955,6.848c0.375,0.224,0.843,0.224,1.215,0c0.371-0.213,0.604-0.616,0.604-1.05L129.408,206.252z"/>
		<path fill-rule="evenodd" clip-rule="evenodd" fill="#699F63" d="M226.227,163.388c-0.377-0.21-0.836-0.205-1.208,0.014
			c-0.371,0.218-0.6,0.616-0.6,1.048v30.88c0,0.303-0.162,0.585-0.424,0.736c-0.264,0.152-0.588,0.152-0.852,0l-5.04-2.903
			c-0.752-0.434-1.677-0.433-2.429,0l-20.129,11.617c-0.753,0.435-1.216,1.237-1.216,2.105v23.238c0,0.869,0.463,1.671,1.215,2.105
			l20.129,11.626c0.752,0.434,1.679,0.434,2.432,0l20.132-11.626c0.751-0.435,1.215-1.236,1.215-2.105v-57.929
			c0-0.881-0.477-1.693-1.246-2.122L226.227,163.388z M224.359,222.488c0,0.216-0.116,0.417-0.304,0.525l-6.912,3.983
			c-0.188,0.108-0.419,0.108-0.606,0l-6.911-3.983c-0.188-0.108-0.305-0.31-0.305-0.525v-7.981c0-0.216,0.116-0.417,0.305-0.526
			l6.91-3.991c0.188-0.109,0.42-0.109,0.608,0l6.911,3.991c0.188,0.109,0.304,0.311,0.304,0.526V222.488z"/>
		<path fill-rule="evenodd" clip-rule="evenodd" fill="#699F63" d="M293.255,214.299c0.749-0.436,1.21-1.236,1.21-2.102v-5.632
			c0-0.866-0.461-1.668-1.21-2.103l-20-11.612c-0.753-0.438-1.682-0.438-2.437-0.003l-20.122,11.617
			c-0.752,0.434-1.215,1.236-1.215,2.104v23.232c0,0.874,0.469,1.68,1.228,2.112l19.997,11.395c0.737,0.421,1.642,0.426,2.383,0.013
			l12.096-6.723c0.384-0.214,0.623-0.615,0.625-1.054c0.003-0.438-0.23-0.845-0.609-1.063l-20.25-11.623
			c-0.378-0.216-0.611-0.619-0.611-1.054v-7.281c0-0.434,0.232-0.836,0.608-1.053l6.303-3.633c0.375-0.217,0.838-0.217,1.214,0
			l6.305,3.633c0.377,0.217,0.608,0.619,0.608,1.053v5.729c0,0.436,0.232,0.837,0.609,1.054c0.377,0.218,0.841,0.216,1.217-0.002
			L293.255,214.299z"/>
		<path fill-rule="evenodd" clip-rule="evenodd" fill="#699F63" d="M271.739,213.21c0.146-0.083,0.323-0.083,0.467,0l3.862,2.229
			c0.145,0.084,0.233,0.237,0.233,0.404v4.46c0,0.167-0.089,0.32-0.233,0.404l-3.862,2.229c-0.144,0.084-0.321,0.084-0.467,0
			l-3.859-2.229c-0.144-0.084-0.232-0.237-0.232-0.404v-4.46c0-0.167,0.089-0.32,0.232-0.404L271.739,213.21z"/>
	</g>
	<g>
		<defs>
			<path id="SVGID_1_" d="M160.663,192.969l-20.017,11.551c-0.749,0.433-1.209,1.229-1.209,2.094v23.12
				c0,0.863,0.46,1.662,1.208,2.095l20.016,11.561c0.749,0.432,1.671,0.432,2.419,0l20.012-11.561
				c0.748-0.433,1.208-1.231,1.208-2.095v-23.12c0-0.864-0.46-1.661-1.209-2.094l-20.011-11.551
				c-0.374-0.216-0.792-0.324-1.209-0.324S161.036,192.753,160.663,192.969"/>
		</defs>
		<clipPath id="SVGID_2_">
			<use xlink:href="#SVGID_1_"  overflow="visible"/>
		</clipPath>
		
			<linearGradient id="SVGID_3_" gradientUnits="userSpaceOnUse" x1="-110.3359" y1="482.6133" x2="-109.8611" y2="482.6133" gradientTransform="matrix(-38.0649 77.6524 77.6524 38.0649 -41505.9219 -9601.1543)">
			<stop  offset="0" style="stop-color:#41873F"/>
			<stop  offset="0.3288" style="stop-color:#418B3D"/>
			<stop  offset="0.6352" style="stop-color:#419637"/>
			<stop  offset="0.9319" style="stop-color:#3FA92D"/>
			<stop  offset="1" style="stop-color:#3FAE2A"/>
		</linearGradient>
		<polygon clip-path="url(#SVGID_2_)" fill="url(#SVGID_3_)" points="204.526,202.56 175.608,261.551 119.211,233.905 
			148.128,174.913 		"/>
	</g>
	<g>
		<defs>
			<path id="SVGID_4_" d="M139.935,231.202c0.19,0.25,0.43,0.463,0.71,0.626l17.171,9.917l2.858,1.644
				c0.428,0.246,0.916,0.351,1.395,0.315c0.16-0.014,0.32-0.042,0.476-0.088l21.107-38.65c-0.162-0.174-0.35-0.324-0.561-0.446
				l-13.106-7.565l-6.926-3.985c-0.198-0.114-0.411-0.196-0.629-0.25L139.935,231.202z"/>
		</defs>
		<clipPath id="SVGID_5_">
			<use xlink:href="#SVGID_4_"  overflow="visible"/>
		</clipPath>
		
			<linearGradient id="SVGID_6_" gradientUnits="userSpaceOnUse" x1="-111.0293" y1="481.5234" x2="-110.5542" y2="481.5234" gradientTransform="matrix(106.8073 -78.9149 -78.9149 -106.8073 50016.7422 42888.8711)">
			<stop  offset="0" style="stop-color:#41873F"/>
			<stop  offset="0.1376" style="stop-color:#41873F"/>
			<stop  offset="0.4032" style="stop-color:#54A044"/>
			<stop  offset="0.7136" style="stop-color:#66B848"/>
			<stop  offset="0.9081" style="stop-color:#6CC04A"/>
			<stop  offset="1" style="stop-color:#6CC04A"/>
		</linearGradient>
		<polygon clip-path="url(#SVGID_5_)" fill="url(#SVGID_6_)" points="115.549,210.735 168.214,171.824 208.037,225.723 
			155.373,264.634 		"/>
	</g>
	<g>
		<defs>
			<path id="SVGID_7_" d="M160.663,192.969l-20.017,11.551c-0.749,0.433-1.209,1.229-1.209,2.094v23.12
				c0,0.863,0.46,1.662,1.208,2.095l20.016,11.561c0.749,0.432,1.671,0.432,2.419,0l20.012-11.561
				c0.748-0.433,1.208-1.231,1.208-2.095v-23.12c0-0.864-0.46-1.661-1.209-2.094l-20.011-11.551
				c-0.374-0.216-0.792-0.324-1.209-0.324S161.036,192.753,160.663,192.969"/>
		</defs>
		<clipPath id="SVGID_8_">
			<use xlink:href="#SVGID_7_"  overflow="visible"/>
		</clipPath>
		<g clip-path="url(#SVGID_8_)">
			<defs>
				<polygon id="SVGID_9_" points="159.995,188.723 159.72,188.88 160.087,188.88 				"/>
			</defs>
			<clipPath id="SVGID_10_">
				<use xlink:href="#SVGID_9_"  overflow="visible"/>
			</clipPath>
			
				<linearGradient id="SVGID_11_" gradientUnits="userSpaceOnUse" x1="-110.4272" y1="481.0869" x2="-109.9272" y2="481.0869" gradientTransform="matrix(97.417 0 0 -97.417 10895.1367 47054.793)">
				<stop  offset="0" style="stop-color:#6CC04A"/>
				<stop  offset="0.0919" style="stop-color:#6CC04A"/>
				<stop  offset="0.2864" style="stop-color:#66B848"/>
				<stop  offset="0.5968" style="stop-color:#54A044"/>
				<stop  offset="0.8624" style="stop-color:#41873F"/>
				<stop  offset="1" style="stop-color:#41873F"/>
			</linearGradient>
			<rect x="159.72" y="188.723" clip-path="url(#SVGID_10_)" fill="url(#SVGID_11_)" width="0.367" height="0.157"/>
		</g>
	</g>
	<g>
		<defs>
			<path id="SVGID_12_" d="M161.628,192.657c-0.335,0.033-0.664,0.138-0.966,0.312l-19.96,11.518l21.518,39.2
				c0.299-0.043,0.591-0.143,0.86-0.298l20.012-11.561c0.618-0.357,1.04-0.965,1.168-1.652l-21.938-37.479
				c-0.163-0.032-0.327-0.049-0.492-0.049C161.763,192.648,161.695,192.651,161.628,192.657"/>
		</defs>
		<clipPath id="SVGID_13_">
			<use xlink:href="#SVGID_12_"  overflow="visible"/>
		</clipPath>
		
			<linearGradient id="SVGID_14_" gradientUnits="userSpaceOnUse" x1="-110.416" y1="481.4199" x2="-109.9407" y2="481.4199" gradientTransform="matrix(97.417 0 0 -97.417 10895.1367 47116.6055)">
			<stop  offset="0" style="stop-color:#6CC04A"/>
			<stop  offset="0.0919" style="stop-color:#6CC04A"/>
			<stop  offset="0.2864" style="stop-color:#66B848"/>
			<stop  offset="0.5968" style="stop-color:#54A044"/>
			<stop  offset="0.8624" style="stop-color:#41873F"/>
			<stop  offset="1" style="stop-color:#41873F"/>
		</linearGradient>
		<rect x="140.703" y="192.648" clip-path="url(#SVGID_13_)" fill="url(#SVGID_14_)" width="43.558" height="51.038"/>
	</g>
	<g>
		<defs>
			<path id="SVGID_15_" d="M160.663,192.969l-20.017,11.551c-0.749,0.433-1.209,1.229-1.209,2.094v23.12
				c0,0.863,0.46,1.662,1.208,2.095l20.016,11.561c0.749,0.432,1.671,0.432,2.419,0l20.012-11.561
				c0.748-0.433,1.208-1.231,1.208-2.095v-23.12c0-0.864-0.46-1.661-1.209-2.094l-20.011-11.551
				c-0.374-0.216-0.792-0.324-1.209-0.324S161.036,192.753,160.663,192.969"/>
		</defs>
		<clipPath id="SVGID_16_">
			<use xlink:href="#SVGID_15_"  overflow="visible"/>
		</clipPath>
		<g clip-path="url(#SVGID_16_)">
			<defs>
				<polygon id="SVGID_17_" points="185.009,231.456 184.876,231.229 184.876,231.533 				"/>
			</defs>
			<clipPath id="SVGID_18_">
				<use xlink:href="#SVGID_17_"  overflow="visible"/>
			</clipPath>
			
				<linearGradient id="SVGID_19_" gradientUnits="userSpaceOnUse" x1="-110.4404" y1="481.5703" x2="-109.9404" y2="481.5703" gradientTransform="matrix(97.417 0 0 -97.417 10895.1367 47144.418)">
				<stop  offset="0" style="stop-color:#6CC04A"/>
				<stop  offset="0.0919" style="stop-color:#6CC04A"/>
				<stop  offset="0.2864" style="stop-color:#66B848"/>
				<stop  offset="0.5968" style="stop-color:#54A044"/>
				<stop  offset="0.8624" style="stop-color:#41873F"/>
				<stop  offset="1" style="stop-color:#41873F"/>
			</linearGradient>
			<rect x="184.876" y="231.229" clip-path="url(#SVGID_18_)" fill="url(#SVGID_19_)" width="0.133" height="0.305"/>
		</g>
	</g>
	<g>
		<defs>
			<path id="SVGID_20_" d="M160.663,192.969l-20.017,11.551c-0.749,0.433-1.209,1.229-1.209,2.094v23.12
				c0,0.863,0.46,1.662,1.208,2.095l20.016,11.561c0.749,0.432,1.671,0.432,2.419,0l20.012-11.561
				c0.748-0.433,1.208-1.231,1.208-2.095v-23.12c0-0.864-0.46-1.661-1.209-2.094l-20.011-11.551
				c-0.374-0.216-0.792-0.324-1.209-0.324S161.036,192.753,160.663,192.969"/>
		</defs>
		<clipPath id="SVGID_21_">
			<use xlink:href="#SVGID_20_"  overflow="visible"/>
		</clipPath>
		<g clip-path="url(#SVGID_21_)">
			<defs>
				<path id="SVGID_22_" d="M183.143,231.828l-20.038,11.56c-0.276,0.159-0.576,0.259-0.884,0.301l0.399,0.728l22.256-12.883v-0.305
					l-0.55-0.939C184.161,230.93,183.726,231.49,183.143,231.828"/>
			</defs>
			<clipPath id="SVGID_23_">
				<use xlink:href="#SVGID_22_"  overflow="visible"/>
			</clipPath>
			
				<linearGradient id="SVGID_24_" gradientUnits="userSpaceOnUse" x1="-110.416" y1="481.6387" x2="-109.941" y2="481.6387" gradientTransform="matrix(97.417 0 0 -97.417 10895.1367 47156.9805)">
				<stop  offset="0" style="stop-color:#6CC04A"/>
				<stop  offset="0.0919" style="stop-color:#6CC04A"/>
				<stop  offset="0.2864" style="stop-color:#66B848"/>
				<stop  offset="0.5968" style="stop-color:#54A044"/>
				<stop  offset="0.8624" style="stop-color:#41873F"/>
				<stop  offset="1" style="stop-color:#41873F"/>
			</linearGradient>
			<rect x="162.221" y="230.289" clip-path="url(#SVGID_23_)" fill="url(#SVGID_24_)" width="22.655" height="14.127"/>
		</g>
	</g>
	<g>
		<defs>
			<path id="SVGID_25_" d="M160.663,192.969l-20.017,11.551c-0.749,0.433-1.209,1.229-1.209,2.094v23.12
				c0,0.863,0.46,1.662,1.208,2.095l20.016,11.561c0.749,0.432,1.671,0.432,2.419,0l20.012-11.561
				c0.748-0.433,1.208-1.231,1.208-2.095v-23.12c0-0.864-0.46-1.661-1.209-2.094l-20.011-11.551
				c-0.374-0.216-0.792-0.324-1.209-0.324S161.036,192.753,160.663,192.969"/>
		</defs>
		<clipPath id="SVGID_26_">
			<use xlink:href="#SVGID_25_"  overflow="visible"/>
		</clipPath>
		<g clip-path="url(#SVGID_26_)">
			<defs>
				<path id="SVGID_27_" d="M183.143,231.828l-20.038,11.56c-0.276,0.159-0.576,0.259-0.884,0.301l0.399,0.728l22.256-12.883v-0.305
					l-0.55-0.939C184.161,230.93,183.726,231.49,183.143,231.828"/>
			</defs>
			<clipPath id="SVGID_28_">
				<use xlink:href="#SVGID_27_"  overflow="visible"/>
			</clipPath>
			
				<linearGradient id="SVGID_29_" gradientUnits="userSpaceOnUse" x1="-110.4946" y1="482.2324" x2="-110.0191" y2="482.2324" gradientTransform="matrix(-60.0806 122.5644 122.5644 60.0806 -65551.5469 -15229.7607)">
				<stop  offset="0" style="stop-color:#41873F"/>
				<stop  offset="0.3288" style="stop-color:#418B3D"/>
				<stop  offset="0.6352" style="stop-color:#419637"/>
				<stop  offset="0.9319" style="stop-color:#3FA92D"/>
				<stop  offset="1" style="stop-color:#3FAE2A"/>
			</linearGradient>
			<polygon clip-path="url(#SVGID_28_)" fill="url(#SVGID_29_)" points="190.459,233.025 180.487,253.369 156.638,241.679 
				166.61,221.335 			"/>
		</g>
	</g>
</g>
</svg>
